<svg clip-rule="evenodd" fill-rule="evenodd" stroke-linejoin="round" stroke-miterlimit="2" viewBox="0 0 400 112" xmlns="http://www.w3.org/2000/svg"><g fill-rule="nonzero"><path d="m2214 .92h-151.39c-23.53 0-42.61 19.078-42.61 42.609v151.39c0 23.531 19.08 42.608 42.61 42.608h151.39c23.53 0 42.61-19.077 42.61-42.608v-151.39c0-23.531-19.08-42.609-42.61-42.609z" fill="#712123" transform="matrix(.471876 0 0 .471876 -953.189 -.43409)"/><g fill="#fff"><path d="m2123.41 141.511c-5.71 0-11.42-2.174-15.77-6.52-8.69-8.694-8.69-22.84 0-31.534 4.35-4.347 10.06-6.521 15.77-6.521s11.42 2.174 15.76 6.521c8.7 8.694 8.7 22.84 0 31.533-4.34 4.348-10.05 6.521-15.76 6.521z" transform="matrix(.471876 0 0 .471876 -953.189 -.43409)"/><path d="m2156.55 124.907c-1.33 7.81-5.38 15.242-12.23 20.702-12.24 9.748-29.91 9.68-42.05-.182-16.68-13.538-16.68-38.863-.01-52.403 12.15-9.864 29.82-9.934 42.06-.187 6.85 5.459 10.9 12.893 12.23 20.703h55.08l-21.12-37.382c-5.36-9.492-15.42-15.363-26.32-15.363h-40.78c-32.27 0-58.43 26.16-58.43 58.428 0 32.27 26.16 58.429 58.43 58.429h36.32l29.79-52.745z" transform="matrix(.471876 0 0 .471876 -953.189 -.43409)"/><path d="m2378.74 102.916v-27.746h-27.75z" transform="matrix(.42389234519 -.11259102923 .12287037601 .46259419908 -846.269566828 264.669144284)"/><g transform="matrix(.19374001682 0 0 .19374001682 -1810.00881856 -125.150450572)"><path d="m10166.7 865.312c-16.6-32-47-42.6-76.2-42.6-56 0-96.03 37.6-96.03 106s40.23 105.198 96.03 104.798c28 0 56.6-9.2 73.6-37.198v9.798c0 53.8-35.8 63.2-70.6 63.2-33.8 0-58.8-9.8-77.6-19.4l-4.8 57.2c20 9.4 48.2 19.6 94.6 19.6 82.6 0 137.6-29.4 137.6-128.998v-120.677l-30.6-18.916-46-30.607zm-46.2 113c-25.4 0-47-18-47-49.6 0-31.8 21.6-49.6 47-49.6 24 0 47.4 15.2 47.4 49.6 0 34-23.4 49.6-47.4 49.6z"/><path d="m10385.1 822.712c-54.4 0-88.2 14-106 24l3 58c25.4-14 60.2-24.6 89.4-24.6 23.8 0 38.8 7 40 28.2-25 2-56 6.6-84.8 15.8-41.8 12.6-66 31.8-66 69.8 0 39.398 27.6 62.198 71.4 62.198 38 0 67.2-16.8 82.6-49v44.2h77.4v-136.398c0-73.2-44-92.2-107-92.2zm-20 183.198c-15.4 0-28-8.198-28-23.798 0-15.8 13-28 34.8-35.6 15.8-5.4 28.6-9.4 42-13.6v12.6c-.2 38.2-23.8 60.398-48.8 60.398z"/><path d="m10669.9 986.912c-8.8 3.4-16.8 6.2-27 6.2-20.6 0-29-7.4-29-23.8v-85h57.4v-56.8h-57.4v-62.4l-80.4 15.8v46.6h-31.6v56.8h31.6v103.6c0 52.398 31.2 68.198 79.2 68.198 22.2 0 41.8-3.6 59.6-9z"/><path d="m10734.5 806.112c27.6 0 46.2-11 46.2-32.4 0-21.2-18.6-32.2-46.2-32.2s-46 11-46 32.2c0 21.4 18.4 32.4 46 32.4zm40.2 21.4h-80.4v223.798h80.4z"/><path d="m10803.9 764.912h80.4v286.4h-80.4z"/><path d="m11025.5 822.712c-54.4 0-88.2 14-106 24l3 58c25.4-14 60.2-24.6 89.4-24.6 23.8 0 38.8 7 40 28.2-25 2-56 6.6-84.8 15.8-41.8 12.6-66 31.8-66 69.8 0 39.398 27.6 62.198 71.4 62.198 38 0 67.2-16.8 82.6-49v44.2h77.4v-136.398c0-73.2-44-92.2-107-92.2zm-20 183.198c-15.4 0-28-8.198-28-23.798 0-15.8 13-28 34.8-35.6 15.8-5.4 28.6-9.4 42-13.6v12.6c-.2 38.2-23.8 60.398-48.8 60.398z"/><path d="m11312.3 822.712c-31.8 0-57.2 13.4-72.8 40.4v-98.2h-80.4v286.398h82.4l-1.2-34.2c15.6 26 40.8 39 72 39 55.8 0 94.8-45.2 94.8-116.598 0-71.4-38.2-116.8-94.8-116.8zm-31 169.6c-25.6 0-46.4-19.6-46.4-52.8s20.8-53.2 46.4-53.2c26 0 46.6 20 46.6 53.2s-20.6 52.8-46.6 52.8z"/></g></g></g></svg>