<svg clip-rule="evenodd" fill-rule="evenodd" stroke-linejoin="round" stroke-miterlimit="2" viewBox="0 0 96 29" xmlns="http://www.w3.org/2000/svg" xmlns:xlink="http://www.w3.org/1999/xlink"><linearGradient id="a" gradientTransform="matrix(2.82312 -.749854 .818201 3.08044 38.697 10.8385)" gradientUnits="userSpaceOnUse" x1="0" x2="1" y1="0" y2="0"><stop offset="0"/><stop offset=".5" stop-color="#861b25"/><stop offset=".9" stop-color="#da1f27"/><stop offset="1" stop-color="#ed1f27"/></linearGradient><g fill-rule="nonzero"><path d="m21.971.96h-17.145c-2.665 0-4.826 2.161-4.826 4.825v17.145c0 2.665 2.161 4.826 4.826 4.826h17.145c2.664 0 4.825-2.161 4.825-4.826v-17.145c0-2.664-2.161-4.825-4.825-4.825z" fill="#712123"/><path d="m11.711 16.882c-.646 0-1.293-.246-1.786-.738-.984-.985-.984-2.587 0-3.572.493-.492 1.14-.738 1.786-.738.647 0 1.294.246 1.785.738.985.985.985 2.587 0 3.571-.491.493-1.138.739-1.785.739z" fill="#fff"/><path d="m15.464 15.002c-.15.884-.609 1.726-1.385 2.344-1.386 1.104-3.387 1.096-4.762-.021-1.889-1.533-1.889-4.401-.001-5.934 1.376-1.117 3.377-1.125 4.763-.021.776.618 1.235 1.46 1.385 2.344h6.238l-2.392-4.233c-.607-1.075-1.746-1.74-2.98-1.74h-4.619c-3.655 0-6.617 2.962-6.617 6.617 0 3.654 2.962 6.617 6.617 6.617h4.113l3.374-5.973z" fill="#fff"/><path d="m41.929 11.629-.818-3.081s-1.418.377-2.823.75z" fill="url(#a)"/><path d="m38.324 11.159c-.772-1.488-2.185-1.981-3.543-1.981-2.604 0-4.464 1.748-4.464 4.929 0 3.18 1.87 4.891 4.464 4.873 1.302 0 2.632-.428 3.422-1.73v.456c0 2.501-1.664 2.938-3.282 2.938-1.572 0-2.734-.455-3.609-.902l-.223 2.66c.93.437 2.241.911 4.399.911 3.841 0 6.398-1.367 6.398-5.998v-5.611l-1.423-.88-2.139-1.423zm-2.148 5.254c-1.181 0-2.185-.837-2.185-2.306 0-1.479 1.004-2.306 2.185-2.306 1.116 0 2.204.706 2.204 2.306 0 1.581-1.088 2.306-2.204 2.306z"/><path d="m48.479 9.178c-2.529 0-4.101.651-4.928 1.116l.139 2.697c1.181-.651 2.799-1.144 4.157-1.144 1.107 0 1.804.326 1.86 1.311-1.162.093-2.604.307-3.943.735-1.944.586-3.069 1.479-3.069 3.245 0 1.832 1.283 2.893 3.32 2.893 1.767 0 3.125-.782 3.841-2.279v2.055h3.599v-6.342c0-3.403-2.046-4.287-4.976-4.287zm-.93 8.518c-.716 0-1.301-.381-1.301-1.106 0-.735.604-1.302 1.618-1.656.734-.251 1.329-.437 1.953-.632v.586c-.01 1.776-1.107 2.808-2.27 2.808z"/><path d="m61.722 16.813c-.409.158-.781.288-1.255.288-.958 0-1.349-.344-1.349-1.106v-3.953h2.669v-2.641h-2.669v-2.901l-3.738.734v2.167h-1.47v2.641h1.47v4.817c0 2.437 1.45 3.172 3.682 3.172 1.033 0 1.944-.168 2.772-.419z"/><path d="m64.726 8.406c1.283 0 2.148-.511 2.148-1.506 0-.986-.865-1.498-2.148-1.498-1.284 0-2.139.512-2.139 1.498 0 .995.855 1.506 2.139 1.506zm1.869.995h-3.739v10.406h3.739z"/><path d="m67.953 6.491h3.738v13.317h-3.738z"/><path d="m78.256 9.178c-2.529 0-4.101.651-4.928 1.116l.139 2.697c1.181-.651 2.799-1.144 4.157-1.144 1.107 0 1.804.326 1.86 1.311-1.162.093-2.604.307-3.943.735-1.944.586-3.069 1.479-3.069 3.245 0 1.832 1.284 2.893 3.32 2.893 1.767 0 3.125-.782 3.841-2.279v2.055h3.599v-6.342c0-3.403-2.046-4.287-4.976-4.287zm-.929 8.518c-.717 0-1.302-.381-1.302-1.106 0-.735.604-1.302 1.618-1.656.734-.251 1.33-.437 1.953-.632v.586c-.01 1.776-1.107 2.808-2.269 2.808z"/><path d="m91.592 9.178c-1.479 0-2.66.623-3.385 1.879v-4.566h-3.738v13.316h3.831l-.056-1.59c.726 1.209 1.897 1.814 3.348 1.814 2.595 0 4.408-2.102 4.408-5.422s-1.776-5.431-4.408-5.431zm-1.441 7.886c-1.191 0-2.158-.911-2.158-2.455s.967-2.474 2.158-2.474c1.209 0 2.166.93 2.166 2.474s-.957 2.455-2.166 2.455z"/></g></svg>