<svg clip-rule="evenodd" fill-rule="evenodd" stroke-linejoin="round" stroke-miterlimit="2" viewBox="0 0 27 27" xmlns="http://www.w3.org/2000/svg"><g fill-rule="nonzero"><path d="m21.971 0h-17.145c-2.665 0-4.826 2.161-4.826 4.825v17.145c0 2.665 2.161 4.826 4.826 4.826h17.145c2.664 0 4.825-2.161 4.825-4.826v-17.145c0-2.664-2.161-4.825-4.825-4.825z" fill="#712123"/><g fill="#fff"><path d="m11.711 15.922c-.646 0-1.293-.246-1.786-.738-.984-.985-.984-2.587 0-3.572.493-.492 1.14-.738 1.786-.738.647 0 1.294.246 1.785.738.985.985.985 2.587 0 3.571-.491.493-1.138.739-1.785.739z"/><path d="m15.464 14.042c-.15.884-.609 1.726-1.385 2.344-1.386 1.104-3.387 1.096-4.762-.021-1.889-1.533-1.889-4.401-.001-5.934 1.376-1.117 3.377-1.125 4.763-.021.776.618 1.235 1.46 1.385 2.344h6.238l-2.392-4.233c-.607-1.075-1.746-1.74-2.98-1.74h-4.619c-3.655 0-6.617 2.962-6.617 6.617 0 3.654 2.962 6.617 6.617 6.617h4.113l3.374-5.973z"/></g></g></svg>